# Blender v3.4.1 OBJ File: 'ClockTowerAndDoor.blend'
# www.blender.org
mtllib MinArrow.mtl
o MinArrowV2_Cube.015
v 0.212526 0.027208 0.107258
v 0.221981 0.027208 0.107258
v 0.212526 0.006756 0.107258
v 0.221982 0.006756 0.107258
v 0.212526 0.016981 1.235114
v 0.221982 0.016981 1.235114
v 0.224086 0.002203 0.195205
v 0.210422 0.002203 0.195205
v 0.210422 0.031759 0.195205
v 0.224086 0.031761 0.195205
v 0.226383 -0.000494 0.951252
v 0.208124 0.034456 0.951252
v 0.208124 -0.000494 0.951252
v 0.226383 0.034456 0.951252
v 0.193751 -0.033857 0.513712
v 0.184021 -0.054901 0.360701
v 0.240757 0.067816 0.513712
v 0.250488 0.088865 0.360701
v 0.250488 -0.054901 0.360701
v 0.240757 -0.033855 0.513712
v 0.184020 0.088865 0.360701
v 0.193752 0.067816 0.513712
v 0.202942 0.047937 0.275923
v 0.202942 -0.013975 0.275923
v 0.231565 -0.013975 0.275923
v 0.231565 0.047935 0.275923
v 0.217254 0.029449 0.100014
v 0.211490 0.016983 0.100014
v 0.217254 0.004513 0.100014
v 0.223017 0.016983 0.100014
v 0.217254 0.016983 1.269389
v 0.211154 0.003788 0.143095
v 0.210867 0.024065 1.156294
v 0.223353 0.030176 0.143095
v 0.223353 0.003788 0.143095
v 0.211154 0.030176 0.143095
v 0.207860 0.016981 0.195205
v 0.226648 0.016981 0.195205
v 0.217254 0.037302 0.195205
v 0.217254 -0.003342 0.195205
v 0.223640 0.009897 1.156294
v 0.223641 0.024065 1.156294
v 0.204700 0.016981 0.940156
v 0.229808 0.016981 0.940156
v 0.217254 0.041012 0.957910
v 0.217254 -0.007046 0.957910
v 0.248694 -0.051022 0.409779
v 0.217254 -0.052916 0.513712
v 0.185814 -0.051022 0.409779
v 0.217254 -0.081860 0.360701
v 0.185814 0.084984 0.409779
v 0.217254 0.086885 0.513712
v 0.248694 0.084986 0.409779
v 0.217254 0.115820 0.360701
v 0.249571 0.016981 0.513712
v 0.262951 0.016981 0.360701
v 0.184938 0.016979 0.513712
v 0.171558 0.016979 0.360701
v 0.208694 0.035500 0.238043
v 0.192133 -0.037354 0.317772
v 0.242375 -0.037354 0.317772
v 0.202088 0.049503 0.710446
v 0.202088 -0.015539 0.710446
v 0.232421 -0.015539 0.710446
v 0.242375 0.071318 0.317772
v 0.232421 0.049503 0.710446
v 0.192133 0.071318 0.317772
v 0.208694 -0.001534 0.238043
v 0.225814 -0.001534 0.238043
v 0.225815 0.035498 0.238043
v 0.197575 0.016981 0.275923
v 0.217255 -0.025583 0.275923
v 0.217254 0.059547 0.275923
v 0.236933 0.016981 0.275923
v 0.210867 0.009897 1.156294
v 0.217254 0.016985 0.084811
v 0.217254 0.006948 1.178517
v 0.217254 0.027016 1.178517
v 0.226278 0.016981 1.108423
v 0.208230 0.016981 1.108423
v 0.208860 0.016981 0.142381
v 0.225647 0.016983 0.142381
v 0.217254 0.035139 0.142381
v 0.217254 -0.001173 0.142381
v 0.217255 -0.027737 0.711279
v 0.217254 0.061695 0.711279
v 0.251796 0.016979 0.317772
v 0.196401 0.016981 0.709059
v 0.238108 0.016981 0.709059
v 0.217254 0.091694 0.317772
v 0.217254 -0.057728 0.317772
v 0.217254 -0.076525 0.409779
v 0.217254 0.110485 0.409779
v 0.260484 0.016981 0.409779
v 0.174024 0.016981 0.409779
v 0.182713 0.016979 0.317772
v 0.205484 0.016981 0.238043
v 0.217254 -0.008478 0.238043
v 0.217254 0.042442 0.238043
v 0.229024 0.016983 0.238043
vt 0.580157 0.964598
vt 0.580703 0.964598
vt 0.580703 0.965779
vt 0.580157 0.965779
vt 0.581249 0.964598
vt 0.581249 0.965779
vt 0.581249 0.966960
vt 0.580703 0.966960
vt 0.580157 0.966961
vt 0.642448 0.925030
vt 0.642996 0.924613
vt 0.642992 0.938836
vt 0.642446 0.938878
vt 0.643541 0.925030
vt 0.643538 0.938878
vt 0.643535 0.952725
vt 0.642989 0.952725
vt 0.642443 0.952725
vt 0.650758 0.917782
vt 0.650213 0.918200
vt 0.650208 0.903977
vt 0.650755 0.903935
vt 0.649665 0.917782
vt 0.649662 0.903935
vt 0.649659 0.890088
vt 0.650205 0.890088
vt 0.650751 0.890088
vt 0.619337 0.941667
vt 0.620332 0.940090
vt 0.621624 0.950428
vt 0.621642 0.955334
vt 0.621682 0.941374
vt 0.622815 0.955188
vt 0.623948 0.969001
vt 0.634742 0.941659
vt 0.635743 0.940078
vt 0.637049 0.950415
vt 0.637078 0.955321
vt 0.637082 0.941360
vt 0.638248 0.955172
vt 0.639414 0.968983
vt 0.628207 0.890387
vt 0.629377 0.890238
vt 0.629854 0.893973
vt 0.628690 0.894176
vt 0.630547 0.890088
vt 0.631030 0.893877
vt 0.631513 0.897666
vt 0.630277 0.897280
vt 0.629173 0.897966
vt 0.612920 0.890381
vt 0.614093 0.890235
vt 0.614560 0.893971
vt 0.613394 0.894172
vt 0.615265 0.890088
vt 0.615739 0.893878
vt 0.616213 0.897668
vt 0.614974 0.897279
vt 0.613868 0.897962
vt 0.637515 0.968983
vt 0.638062 0.968983
vt 0.638062 0.972749
vt 0.637515 0.972803
vt 0.638608 0.968983
vt 0.638608 0.972803
vt 0.638608 0.976623
vt 0.638061 0.976083
vt 0.637515 0.976623
vt 0.581991 0.975484
vt 0.582537 0.975484
vt 0.582537 0.979250
vt 0.581991 0.979304
vt 0.583084 0.975484
vt 0.583083 0.979304
vt 0.583083 0.983124
vt 0.582537 0.982584
vt 0.581991 0.983124
vt 0.640993 0.894331
vt 0.643010 0.898005
vt 0.643002 0.910006
vt 0.641721 0.909681
vt 0.645025 0.894331
vt 0.644283 0.909681
vt 0.652245 0.948481
vt 0.650229 0.944806
vt 0.650220 0.932806
vt 0.651501 0.933132
vt 0.648213 0.948481
vt 0.648939 0.933132
vt 0.613746 0.901758
vt 0.615540 0.901761
vt 0.615854 0.904211
vt 0.611097 0.904800
vt 0.617271 0.901316
vt 0.620609 0.903609
vt 0.623948 0.905901
vt 0.616173 0.906713
vt 0.608447 0.907841
vt 0.627803 0.911607
vt 0.632586 0.914699
vt 0.634043 0.926478
vt 0.631273 0.926633
vt 0.636438 0.910502
vt 0.636760 0.925931
vt 0.612384 0.911612
vt 0.617167 0.914716
vt 0.618635 0.926492
vt 0.615860 0.926640
vt 0.621037 0.910529
vt 0.621360 0.925951
vt 0.646637 0.976411
vt 0.646637 0.975590
vt 0.649727 0.975574
vt 0.649727 0.977790
vt 0.646637 0.974769
vt 0.649727 0.973358
vt 0.652817 0.971948
vt 0.652817 0.975559
vt 0.652817 0.979170
vt 0.608432 0.963395
vt 0.608432 0.964216
vt 0.605490 0.964200
vt 0.605490 0.961984
vt 0.608432 0.965038
vt 0.605490 0.966416
vt 0.602548 0.967794
vt 0.602548 0.964183
vt 0.602548 0.960572
vt 0.643017 0.892577
vt 0.645831 0.892209
vt 0.640204 0.892209
vt 0.639414 0.890088
vt 0.643025 0.890088
vt 0.646637 0.890088
vt 0.650238 0.950235
vt 0.647425 0.950602
vt 0.653052 0.950602
vt 0.653859 0.952723
vt 0.650248 0.952723
vt 0.646637 0.952723
vt 0.616497 0.909320
vt 0.622493 0.908215
vt 0.610416 0.909727
vt 0.631942 0.909297
vt 0.637926 0.908177
vt 0.625875 0.909719
vt 0.623948 0.907831
vt 0.631624 0.906689
vt 0.639414 0.905852
vt 0.629075 0.901759
vt 0.630883 0.901755
vt 0.631257 0.904195
vt 0.626511 0.904795
vt 0.632592 0.901309
vt 0.636003 0.903581
vt 0.630587 0.899644
vt 0.629124 0.899863
vt 0.632053 0.899488
vt 0.582538 0.984945
vt 0.581855 0.984999
vt 0.583222 0.984999
vt 0.583361 0.986874
vt 0.582540 0.986874
vt 0.581719 0.986874
vt 0.638060 0.978444
vt 0.637376 0.978498
vt 0.638744 0.978498
vt 0.638880 0.980373
vt 0.638058 0.980373
vt 0.637237 0.980373
vt 0.615271 0.899645
vt 0.613807 0.899860
vt 0.616742 0.899492
vn -0.8478 0.3920 -0.3571
vn 0.8479 0.3919 -0.3571
vn 0.8479 -0.3918 -0.3571
vn -0.8478 -0.3919 -0.3572
vn -0.5876 -0.8076 0.0501
vn 0.5877 -0.8076 0.0501
vn 0.6312 -0.7711 0.0840
vn -0.6312 -0.7711 0.0840
vn 0.5878 0.8074 0.0500
vn -0.5879 0.8074 0.0500
vn -0.6314 0.7709 0.0839
vn 0.6314 0.7709 0.0839
vn 0.9815 -0.1900 0.0218
vn 0.9815 0.1900 0.0218
vn 0.9994 -0.0000 0.0339
vn -0.9816 0.1899 0.0218
vn -0.9816 -0.1899 0.0218
vn -0.9994 0.0000 0.0339
vn -0.9856 0.1593 -0.0565
vn -0.9856 -0.1593 -0.0565
vn -0.9850 -0.1715 -0.0189
vn -0.9850 0.1714 -0.0189
vn 0.9856 -0.1593 -0.0565
vn 0.9856 0.1593 -0.0565
vn 0.9850 0.1715 -0.0189
vn 0.9850 -0.1715 -0.0189
vn 0.6004 0.7936 -0.0984
vn -0.6004 0.7936 -0.0984
vn -0.6313 0.7749 -0.0321
vn 0.6312 0.7749 -0.0321
vn -0.6004 -0.7937 -0.0984
vn 0.6004 -0.7936 -0.0983
vn 0.6313 -0.7749 -0.0321
vn -0.6313 -0.7749 -0.0321
vn -0.6268 -0.7729 0.0985
vn 0.6269 -0.7729 0.0985
vn 0.6221 -0.7802 0.0649
vn -0.6221 -0.7802 0.0649
vn 0.6269 0.7728 0.0985
vn -0.6269 0.7728 0.0985
vn -0.6221 0.7803 0.0649
vn 0.6221 0.7803 0.0649
vn 0.9300 -0.1613 -0.3303
vn 0.9300 0.1612 -0.3303
vn 0.9545 0.1655 -0.2480
vn 0.9545 -0.1655 -0.2480
vn -0.9837 0.1702 0.0576
vn -0.9837 -0.1702 0.0576
vn -0.9847 -0.1706 0.0354
vn -0.9847 0.1706 0.0354
vn 0.9837 -0.1702 0.0576
vn 0.9837 0.1702 0.0576
vn 0.9847 0.1706 0.0354
vn 0.9847 -0.1706 0.0354
vn 0.5410 0.6669 -0.5123
vn -0.5410 0.6670 -0.5123
vn -0.5773 0.7118 -0.4000
vn 0.5773 0.7118 -0.4000
vn -0.5410 -0.6670 -0.5123
vn 0.5410 -0.6670 -0.5123
vn 0.5773 -0.7118 -0.4001
vn -0.5773 -0.7118 -0.4001
vn 0.6203 -0.7648 0.1737
vn -0.6203 -0.7649 0.1737
vn -0.6277 -0.7739 0.0841
vn 0.6277 -0.7739 0.0841
vn -0.6204 0.7648 0.1737
vn 0.6204 0.7648 0.1737
vn 0.6277 0.7739 0.0841
vn -0.6277 0.7739 0.0841
vn 0.9801 0.1699 0.1029
vn 0.9801 -0.1699 0.1029
vn 0.9841 -0.1706 0.0495
vn 0.9841 0.1706 0.0495
vn -0.9801 -0.1699 0.1029
vn -0.9801 0.1699 0.1029
vn -0.9841 0.1706 0.0495
vn -0.9841 -0.1706 0.0495
vn -0.9300 0.1612 -0.3303
vn -0.9300 -0.1612 -0.3303
vn -0.9545 -0.1655 -0.2480
vn -0.9545 0.1655 -0.2480
vn -0.9838 0.1705 -0.0546
vn -0.9838 -0.1705 -0.0546
vn -0.9651 -0.1673 -0.2015
vn -0.9651 0.1673 -0.2015
vn -0.6274 -0.7732 -0.0927
vn 0.6274 -0.7732 -0.0927
vn 0.5945 -0.7328 -0.3309
vn -0.5944 -0.7329 -0.3310
vn 0.6272 0.7733 -0.0928
vn -0.6272 0.7733 -0.0928
vn -0.5945 0.7329 -0.3309
vn 0.5946 0.7328 -0.3309
vn 0.9838 -0.1706 -0.0546
vn 0.9838 0.1705 -0.0546
vn 0.9651 0.1673 -0.2015
vn 0.9651 -0.1673 -0.2015
usemtl None
s off
f 1/1/1 27/2/1 76/3/1 28/4/1
f 27/2/2 2/5/2 30/6/2 76/3/2
f 76/3/3 30/6/3 4/7/3 29/8/3
f 28/4/4 76/3/4 29/8/4 3/9/4
f 13/10/5 46/11/5 77/12/5 75/13/5
f 46/11/6 11/14/6 41/15/6 77/12/6
f 77/12/7 41/15/7 6/16/7 31/17/7
f 75/13/8 77/12/8 31/17/8 5/18/8
f 14/19/9 45/20/9 78/21/9 42/22/9
f 45/20/10 12/23/10 33/24/10 78/21/10
f 78/21/11 33/24/11 5/25/11 31/26/11
f 42/22/12 78/21/12 31/26/12 6/27/12
f 11/28/13 44/29/13 79/30/13 41/31/13
f 14/32/14 42/33/14 79/30/14 44/29/14
f 6/34/15 41/31/15 79/30/15 42/33/15
f 12/35/16 43/36/16 80/37/16 33/38/16
f 13/39/17 75/40/17 80/37/17 43/36/17
f 5/41/18 33/38/18 80/37/18 75/40/18
f 1/42/19 28/43/19 81/44/19 36/45/19
f 28/43/20 3/46/20 32/47/20 81/44/20
f 81/44/21 32/47/21 8/48/21 37/49/21
f 36/45/22 81/44/22 37/49/22 9/50/22
f 4/51/23 30/52/23 82/53/23 35/54/23
f 30/52/24 2/55/24 34/56/24 82/53/24
f 82/53/25 34/56/25 10/57/25 38/58/25
f 35/54/26 82/53/26 38/58/26 7/59/26
f 2/60/27 27/61/27 83/62/27 34/63/27
f 27/61/28 1/64/28 36/65/28 83/62/28
f 83/62/29 36/65/29 9/66/29 39/67/29
f 34/63/30 83/62/30 39/67/30 10/68/30
f 3/69/31 29/70/31 84/71/31 32/72/31
f 29/70/32 4/73/32 35/74/32 84/71/32
f 84/71/33 35/74/33 7/75/33 40/76/33
f 32/72/34 84/71/34 40/76/34 8/77/34
f 15/78/35 48/79/35 85/80/35 63/81/35
f 48/79/36 20/82/36 64/83/36 85/80/36
f 85/80/37 64/83/37 11/14/37 46/11/37
f 63/81/38 85/80/38 46/11/38 13/10/38
f 17/84/39 52/85/39 86/86/39 66/87/39
f 52/85/40 22/88/40 62/89/40 86/86/40
f 86/86/41 62/89/41 12/23/41 45/20/41
f 66/87/42 86/86/42 45/20/42 14/19/42
f 25/90/43 74/91/43 87/92/43 61/93/43
f 74/91/44 26/94/44 65/95/44 87/92/44
f 87/92/45 65/95/45 18/96/45 56/97/45
f 61/93/46 87/92/46 56/97/46 19/98/46
f 22/99/47 57/100/47 88/101/47 62/102/47
f 57/100/48 15/103/48 63/104/48 88/101/48
f 88/101/49 63/104/49 13/39/49 43/36/49
f 62/102/50 88/101/50 43/36/50 12/35/50
f 20/105/51 55/106/51 89/107/51 64/108/51
f 55/106/52 17/109/52 66/110/52 89/107/52
f 89/107/53 66/110/53 14/32/53 44/29/53
f 64/108/54 89/107/54 44/29/54 11/28/54
f 26/111/55 73/112/55 90/113/55 65/114/55
f 73/112/56 23/115/56 67/116/56 90/113/56
f 90/113/57 67/116/57 21/117/57 54/118/57
f 65/114/58 90/113/58 54/118/58 18/119/58
f 24/120/59 72/121/59 91/122/59 60/123/59
f 72/121/60 25/124/60 61/125/60 91/122/60
f 91/122/61 61/125/61 19/126/61 50/127/61
f 60/123/62 91/122/62 50/127/62 16/128/62
f 20/82/63 48/79/63 92/129/63 47/130/63
f 48/79/64 15/78/64 49/131/64 92/129/64
f 92/129/65 49/131/65 16/132/65 50/133/65
f 47/130/66 92/129/66 50/133/66 19/134/66
f 22/88/67 52/85/67 93/135/67 51/136/67
f 52/85/68 17/84/68 53/137/68 93/135/68
f 93/135/69 53/137/69 18/138/69 54/139/69
f 51/136/70 93/135/70 54/139/70 21/140/70
f 17/109/71 55/106/71 94/141/71 53/142/71
f 55/106/72 20/105/72 47/143/72 94/141/72
f 94/141/73 47/143/73 19/98/73 56/97/73
f 53/142/74 94/141/74 56/97/74 18/96/74
f 15/103/75 57/100/75 95/144/75 49/145/75
f 57/100/76 22/99/76 51/146/76 95/144/76
f 95/144/77 51/146/77 21/147/77 58/148/77
f 49/145/78 95/144/78 58/148/78 16/149/78
f 23/150/79 71/151/79 96/152/79 67/153/79
f 71/151/80 24/154/80 60/155/80 96/152/80
f 96/152/81 60/155/81 16/149/81 58/148/81
f 67/153/82 96/152/82 58/148/82 21/147/82
f 9/50/83 37/49/83 97/156/83 59/157/83
f 37/49/84 8/48/84 68/158/84 97/156/84
f 97/156/85 68/158/85 24/154/85 71/151/85
f 59/157/86 97/156/86 71/151/86 23/150/86
f 8/77/87 40/76/87 98/159/87 68/160/87
f 40/76/88 7/75/88 69/161/88 98/159/88
f 98/159/89 69/161/89 25/162/89 72/163/89
f 68/160/90 98/159/90 72/163/90 24/164/90
f 10/68/91 39/67/91 99/165/91 70/166/91
f 39/67/92 9/66/92 59/167/92 99/165/92
f 99/165/93 59/167/93 23/168/93 73/169/93
f 70/166/94 99/165/94 73/169/94 26/170/94
f 7/59/95 38/58/95 100/171/95 69/172/95
f 38/58/96 10/57/96 70/173/96 100/171/96
f 100/171/97 70/173/97 26/94/97 74/91/97
f 69/172/98 100/171/98 74/91/98 25/90/98
