# Blender v3.4.1 OBJ File: 'ClockTower.blend'
# www.blender.org
mtllib Door.mtl
o Door_Cube.008
v 0.164778 0.025358 -1.383716
v 0.133075 5.329074 -1.383716
v 0.133075 5.329074 1.383716
v 0.164778 0.025358 1.383716
v 0.133075 2.677217 -1.383716
v 0.133075 2.677216 1.383716
v 0.150235 2.800065 -1.170218
v 0.154755 5.041185 -1.321007
v 0.150235 5.041184 1.244020
v 0.150235 2.800065 1.170218
v 0.160634 0.244785 -1.151004
v 0.160634 2.395205 -1.170218
v 0.160634 2.352516 1.170218
v 0.169034 0.244785 1.042765
v 0.277789 2.249110 -0.009376
v 0.338790 1.209961 0.000000
v 0.000000 5.329074 -1.383716
v 0.000000 5.329074 1.383716
v 0.000000 0.025358 1.383716
v 0.000000 0.025358 -1.383716
v 0.000000 2.677216 -1.383716
v 0.000000 2.677216 1.383716
v 0.150235 1.896778 -0.009376
v 0.160634 1.652895 0.000000
v 0.000000 2.481841 -1.000727
v 0.000000 2.567994 -0.999072
v 0.000000 2.569649 -1.085225
v 0.000000 2.483496 -1.086879
v 0.197177 2.489645 -1.008379
v 0.197245 2.560181 -1.007043
v 0.197245 2.561535 -1.077560
v 0.197177 2.491000 -1.078933
v 0.487715 2.525696 -1.042977
v 0.277441 2.432514 -0.953915
v 0.347378 2.418169 -0.939389
v 0.400233 2.427649 -0.948563
v 0.444694 2.450021 -0.970128
v 0.273451 2.612921 -0.951731
v 0.444487 2.598447 -0.967405
v 0.400037 2.619927 -0.945119
v 0.347299 2.629042 -0.935700
v 0.273451 2.616361 -1.130805
v 0.347300 2.633085 -1.146206
v 0.400036 2.623616 -1.137144
v 0.444487 2.601295 -1.115700
v 0.444695 2.452874 -1.118677
v 0.400233 2.431346 -1.141085
v 0.347378 2.422225 -1.150618
v 0.277440 2.436003 -1.135550
v 0.000000 2.524918 -0.999900
v 0.000000 2.526572 -1.086052
v 0.193134 2.524907 -1.006593
v 0.193134 2.526304 -1.079365
v 0.457335 2.523980 -0.952721
v 0.405333 2.523190 -0.909504
v 0.331259 2.522964 -0.893747
v 0.303953 2.523071 -0.897550
v 0.254528 2.523086 -0.923713
v 0.457335 2.527448 -1.133231
v 0.405333 2.528317 -1.176448
v 0.331260 2.528696 -1.192201
v 0.303953 2.528657 -1.188397
v 0.254527 2.527667 -1.162253
v 0.000000 2.568822 -1.042148
v 0.000000 2.482669 -1.043803
v 0.193172 2.561981 -1.042280
v 0.193097 2.489209 -1.043678
v 0.457200 2.615879 -1.041245
v 0.405190 2.658991 -1.040416
v 0.331243 2.674674 -1.040115
v 0.304010 2.670884 -1.040188
v 0.254350 2.644543 -1.040694
v 0.457469 2.435369 -1.044711
v 0.405476 2.392046 -1.045544
v 0.331277 2.376218 -1.045848
v 0.303895 2.380036 -1.045774
v 0.254704 2.406004 -1.045275
v -0.164778 0.025358 -1.383716
v -0.133075 5.329074 -1.383716
v -0.133075 5.329074 1.383716
v -0.164778 0.025358 1.383716
v -0.133075 2.677217 -1.383716
v -0.133075 2.677216 1.383716
v -0.150235 2.800065 -1.170218
v -0.154755 5.041185 -1.321007
v -0.150235 5.041184 1.244020
v -0.150235 2.800065 1.170218
v -0.160634 0.244785 -1.151004
v -0.160634 2.395205 -1.170218
v -0.160634 2.352516 1.170218
v -0.169034 0.244785 1.042765
v -0.277789 2.249110 -0.009376
v -0.338790 1.209961 0.000000
v -0.150235 1.896778 -0.009376
v -0.160634 1.652895 0.000000
v -0.197177 2.489645 -1.008379
v -0.197245 2.560181 -1.007043
v -0.197245 2.561535 -1.077560
v -0.197177 2.491000 -1.078933
v -0.487715 2.525696 -1.042977
v -0.277441 2.432514 -0.953915
v -0.347378 2.418169 -0.939389
v -0.400233 2.427649 -0.948563
v -0.444694 2.450021 -0.970128
v -0.273451 2.612921 -0.951731
v -0.444487 2.598447 -0.967405
v -0.400037 2.619927 -0.945119
v -0.347299 2.629042 -0.935700
v -0.273451 2.616361 -1.130805
v -0.347300 2.633085 -1.146206
v -0.400036 2.623616 -1.137144
v -0.444487 2.601295 -1.115700
v -0.444695 2.452874 -1.118677
v -0.400233 2.431346 -1.141085
v -0.347378 2.422225 -1.150618
v -0.277440 2.436003 -1.135550
v -0.193134 2.524907 -1.006593
v -0.193134 2.526304 -1.079365
v -0.457335 2.523980 -0.952721
v -0.405333 2.523190 -0.909504
v -0.331259 2.522964 -0.893747
v -0.303953 2.523071 -0.897550
v -0.254528 2.523086 -0.923713
v -0.457335 2.527448 -1.133231
v -0.405333 2.528317 -1.176448
v -0.331260 2.528696 -1.192201
v -0.303953 2.528657 -1.188397
v -0.254527 2.527667 -1.162253
v -0.193172 2.561981 -1.042280
v -0.193097 2.489209 -1.043678
v -0.457200 2.615879 -1.041245
v -0.405190 2.658991 -1.040416
v -0.331243 2.674674 -1.040115
v -0.304010 2.670884 -1.040188
v -0.254350 2.644543 -1.040694
v -0.457469 2.435369 -1.044711
v -0.405476 2.392046 -1.045544
v -0.331277 2.376218 -1.045848
v -0.303895 2.380036 -1.045774
v -0.254704 2.406004 -1.045275
vt 0.903960 0.478924
vt 0.903960 0.873382
vt 0.894632 0.830559
vt 0.872203 0.497198
vt 0.492310 0.873382
vt 0.513090 0.830559
vt 0.492310 0.478924
vt 0.524068 0.497198
vt 0.903960 0.084466
vt 0.872203 0.436975
vt 0.869344 0.117105
vt 0.699530 0.362835
vt 0.524068 0.430626
vt 0.698135 0.326558
vt 0.492310 0.084466
vt 0.543026 0.117105
vt 0.699530 0.415244
vt 0.698135 0.260673
vt 0.358550 0.066801
vt 0.369530 0.066801
vt 0.369530 0.243501
vt 0.360662 0.243501
vt 0.358550 0.958003
vt 0.360662 0.781302
vt 0.369530 0.781302
vt 0.369530 0.958003
vt 0.360662 0.604602
vt 0.369529 0.604602
vt 0.360662 0.420201
vt 0.369529 0.420201
vt 0.073569 0.898458
vt 0.079702 0.900201
vt 0.087126 0.914761
vt 0.071867 0.908609
vt 0.155551 0.856667
vt 0.163190 0.857896
vt 0.154960 0.900208
vt 0.148826 0.898472
vt 0.117964 0.943556
vt 0.110325 0.944784
vt 0.104847 0.902044
vt 0.111220 0.901764
vt 0.042586 0.856667
vt 0.050225 0.857895
vt 0.042004 0.900191
vt 0.035867 0.898453
vt 0.080313 0.856666
vt 0.087952 0.857894
vt 0.049648 0.915486
vt 0.034232 0.908618
vt 0.162485 0.914812
vt 0.147192 0.908629
vt 0.027224 0.960879
vt 0.039230 0.976178
vt 0.025418 0.976628
vt 0.103772 0.855438
vt 0.117271 0.855461
vt 0.122443 0.862897
vt 0.105305 0.865019
vt 0.050691 0.931878
vt 0.050557 0.922172
vt 0.069793 0.921952
vt 0.067654 0.935204
vt 0.107444 0.878270
vt 0.125603 0.872051
vt 0.124777 0.885462
vt 0.108224 0.883072
vt 0.109518 0.891613
vt 0.018163 0.945062
vt 0.031117 0.944784
vt 0.066121 0.944784
vt 0.053294 0.940567
vt 0.125985 0.931879
vt 0.125861 0.922199
vt 0.145041 0.922000
vt 0.142913 0.935225
vt 0.055026 0.910315
vt 0.070573 0.917150
vt 0.043912 0.950017
vt 0.043912 0.963703
vt 0.141374 0.944790
vt 0.128567 0.940555
vt 0.012984 0.931852
vt 0.012844 0.922143
vt 0.032094 0.921911
vt 0.029959 0.935191
vt 0.130731 0.909703
vt 0.145811 0.917208
vt 0.013473 0.971268
vt 0.012592 0.957704
vt 0.028415 0.944784
vt 0.015585 0.940548
vt 0.088342 0.868345
vt 0.088208 0.878050
vt 0.107444 0.878270
vt 0.105305 0.865019
vt 0.017439 0.910307
vt 0.032868 0.917096
vt 0.092677 0.889907
vt 0.117353 0.900022
vt 0.087952 0.928171
vt 0.160036 0.937357
vt 0.163190 0.928204
vt 0.079620 0.944761
vt 0.084793 0.937325
vt 0.088208 0.878050
vt 0.090945 0.859656
vt 0.088342 0.868345
vt 0.072674 0.855438
vt 0.067196 0.898178
vt 0.125603 0.942329
vt 0.050301 0.928167
vt 0.041927 0.944784
vt 0.047124 0.937342
vt 0.154864 0.944785
vt 0.142456 0.898197
vt 0.029493 0.898179
vt 0.034948 0.855438
vt 0.147913 0.855438
vt 0.903960 0.478924
vt 0.872203 0.497198
vt 0.894632 0.830559
vt 0.903960 0.873382
vt 0.513090 0.830559
vt 0.492310 0.873382
vt 0.524068 0.497198
vt 0.492310 0.478924
vt 0.903960 0.084466
vt 0.869344 0.117105
vt 0.872203 0.436975
vt 0.699530 0.362835
vt 0.698135 0.326558
vt 0.524068 0.430626
vt 0.543026 0.117105
vt 0.492310 0.084466
vt 0.699530 0.415244
vt 0.698135 0.260673
vt 0.358550 0.066801
vt 0.360662 0.243501
vt 0.358550 0.958003
vt 0.360662 0.781302
vt 0.360662 0.604602
vt 0.360662 0.420201
vt 0.073569 0.898458
vt 0.071867 0.908609
vt 0.087126 0.914761
vt 0.079702 0.900201
vt 0.148826 0.898472
vt 0.154960 0.900208
vt 0.111220 0.901764
vt 0.104847 0.902044
vt 0.035867 0.898453
vt 0.042004 0.900191
vt 0.034232 0.908618
vt 0.049648 0.915486
vt 0.147192 0.908629
vt 0.162485 0.914812
vt 0.027224 0.960879
vt 0.025418 0.976628
vt 0.039230 0.976178
vt 0.103772 0.855438
vt 0.122443 0.862897
vt 0.117271 0.855461
vt 0.069793 0.921952
vt 0.050557 0.922172
vt 0.050691 0.931878
vt 0.067654 0.935204
vt 0.108224 0.883072
vt 0.124777 0.885462
vt 0.125603 0.872051
vt 0.109518 0.891613
vt 0.031117 0.944784
vt 0.018163 0.945062
vt 0.066121 0.944784
vt 0.053294 0.940567
vt 0.145041 0.922000
vt 0.125861 0.922199
vt 0.125985 0.931879
vt 0.142913 0.935225
vt 0.070573 0.917150
vt 0.055026 0.910315
vt 0.043912 0.963703
vt 0.043912 0.950017
vt 0.141374 0.944790
vt 0.128567 0.940555
vt 0.032094 0.921911
vt 0.012844 0.922143
vt 0.012984 0.931852
vt 0.029959 0.935191
vt 0.145811 0.917208
vt 0.130731 0.909703
vt 0.012592 0.957704
vt 0.013473 0.971268
vt 0.028415 0.944784
vt 0.015585 0.940548
vt 0.032868 0.917096
vt 0.017439 0.910307
vt 0.092677 0.889907
vt 0.117353 0.900022
vt 0.087952 0.928171
vt 0.160036 0.937357
vt 0.163190 0.928204
vt 0.079620 0.944761
vt 0.084793 0.937325
vt 0.090945 0.859656
vt 0.067196 0.898178
vt 0.050301 0.928167
vt 0.041927 0.944784
vt 0.047124 0.937342
vt 0.154864 0.944785
vt 0.142456 0.898197
vt 0.029493 0.898179
vn 0.9898 -0.0053 -0.1423
vn 0.9977 0.0672 0.0008
vn 0.9952 -0.0015 0.0974
vn 0.9987 0.0064 -0.0515
vn 0.9959 0.0809 -0.0400
vn 0.9984 0.0069 0.0560
vn 1.0000 -0.0007 -0.0017
vn 0.9935 -0.0097 -0.1137
vn 0.9990 0.0448 0.0018
vn 0.9940 -0.0036 0.1092
vn 0.9403 -0.3404 0.0000
vn 0.9884 -0.0014 -0.1519
vn 0.9277 0.3732 0.0068
vn 0.9878 -0.0055 0.1557
vn 0.9842 -0.1772 -0.0038
vn 0.0000 0.0000 -1.0000
vn 0.0000 0.0000 1.0000
vn 0.0000 1.0000 0.0000
vn 0.9972 -0.0592 -0.0461
vn 0.9972 -0.0598 0.0458
vn 0.9945 0.0924 0.0486
vn -0.7300 0.3004 -0.6139
vn 0.0381 0.9988 0.0315
vn 0.0373 -0.0314 0.9988
vn 0.0366 -0.9988 -0.0315
vn 0.0374 0.0316 -0.9988
vn -0.7256 -0.6141 -0.3105
vn -0.7295 0.6140 0.3013
vn 0.9230 0.2213 0.3149
vn 0.5796 0.2856 0.7632
vn 0.2062 -0.3364 -0.9189
vn -0.2378 0.4137 0.8788
vn -0.4381 0.3505 0.8278
vn 0.9237 -0.2181 -0.3151
vn 0.5802 -0.2823 -0.7640
vn 0.2057 0.9186 -0.3375
vn -0.2291 -0.4073 -0.8841
vn -0.4325 -0.3501 -0.8309
vn 0.9228 0.3165 -0.2196
vn 0.5791 0.7644 -0.2835
vn 0.2065 -0.9179 0.3389
vn -0.2408 0.8789 -0.4117
vn -0.4359 0.8285 -0.3515
vn 0.9238 -0.3135 0.2198
vn 0.5807 -0.7628 0.2844
vn -0.2062 -0.3714 0.9053
vn -0.2258 -0.8841 0.4092
vn -0.4347 -0.8302 0.3491
vn -0.7251 -0.3115 0.6142
vn -0.7300 0.2766 0.6250
vn -0.4381 0.3820 -0.8137
vn -0.2378 0.4471 -0.8623
vn 0.2057 0.9049 0.3725
vn 0.5796 0.3147 -0.7517
vn 0.9230 0.2333 -0.3062
vn -0.4325 -0.3818 0.8168
vn -0.2291 -0.4409 0.8678
vn 0.2060 0.3750 -0.9038
vn 0.5802 -0.3114 0.7526
vn 0.9237 -0.2300 0.3065
vn 0.0373 0.0070 -0.9993
vn 0.0374 -0.0068 0.9993
vn -0.7251 -0.2877 -0.6257
vn -0.4347 -0.8161 -0.3807
vn -0.2258 -0.8677 -0.4428
vn 0.2060 0.3400 0.9176
vn 0.5807 -0.7513 -0.3135
vn 0.9238 -0.3049 -0.2317
vn -0.4359 0.8144 0.3831
vn -0.2408 0.8625 0.4451
vn 0.2065 -0.9042 -0.3739
vn 0.5791 0.7529 0.3127
vn 0.9228 0.3078 0.2316
vn -0.7295 0.6251 -0.2775
vn -0.7256 -0.6255 0.2867
vn 0.0366 -0.9993 -0.0069
vn 0.0381 0.9992 0.0068
vn -0.9898 -0.0053 -0.1423
vn -0.9977 0.0672 0.0008
vn -0.9952 -0.0015 0.0974
vn -0.9987 0.0064 -0.0515
vn -0.9959 0.0809 -0.0400
vn -0.9984 0.0069 0.0560
vn -1.0000 -0.0007 -0.0017
vn -0.9935 -0.0097 -0.1137
vn -0.9990 0.0448 0.0018
vn -0.9940 -0.0036 0.1092
vn -0.9403 -0.3404 0.0000
vn -0.9884 -0.0014 -0.1519
vn -0.9277 0.3732 0.0068
vn -0.9878 -0.0055 0.1557
vn -0.9842 -0.1772 -0.0038
vn -0.9972 -0.0592 -0.0461
vn -0.9972 -0.0598 0.0458
vn -0.9945 0.0924 0.0486
vn 0.7300 0.3004 -0.6139
vn -0.0381 0.9988 0.0315
vn -0.0373 -0.0314 0.9988
vn -0.0366 -0.9988 -0.0315
vn -0.0374 0.0316 -0.9988
vn 0.7256 -0.6141 -0.3105
vn 0.7295 0.6140 0.3014
vn -0.9230 0.2213 0.3149
vn -0.5796 0.2856 0.7632
vn -0.2062 -0.3364 -0.9189
vn 0.2378 0.4137 0.8788
vn 0.4381 0.3505 0.8278
vn -0.9237 -0.2181 -0.3151
vn -0.5802 -0.2823 -0.7640
vn -0.2057 0.9186 -0.3375
vn 0.2291 -0.4073 -0.8841
vn 0.4325 -0.3501 -0.8309
vn -0.9228 0.3165 -0.2196
vn -0.5791 0.7644 -0.2835
vn -0.2065 -0.9179 0.3389
vn 0.2408 0.8789 -0.4117
vn 0.4359 0.8285 -0.3515
vn -0.9238 -0.3135 0.2198
vn -0.5807 -0.7628 0.2844
vn 0.2258 -0.8841 0.4092
vn 0.4347 -0.8302 0.3491
vn 0.7251 -0.3115 0.6142
vn 0.7300 0.2766 0.6250
vn 0.4381 0.3820 -0.8137
vn 0.2378 0.4471 -0.8623
vn -0.2057 0.9049 0.3725
vn -0.5796 0.3147 -0.7517
vn -0.9230 0.2333 -0.3062
vn 0.4325 -0.3818 0.8168
vn 0.2291 -0.4409 0.8678
vn -0.2060 0.3750 -0.9038
vn -0.5802 -0.3114 0.7526
vn -0.9237 -0.2300 0.3065
vn -0.0373 0.0070 -0.9993
vn -0.0374 -0.0068 0.9993
vn 0.7251 -0.2877 -0.6257
vn 0.4347 -0.8161 -0.3807
vn 0.2258 -0.8677 -0.4428
vn -0.2060 0.3400 0.9176
vn -0.5807 -0.7513 -0.3135
vn -0.9238 -0.3049 -0.2317
vn 0.4359 0.8144 0.3831
vn 0.2408 0.8625 0.4451
vn -0.2065 -0.9042 -0.3739
vn -0.5791 0.7529 0.3127
vn -0.9228 0.3078 0.2316
vn 0.7295 0.6251 -0.2775
vn 0.7256 -0.6255 0.2867
vn -0.0366 -0.9993 -0.0069
vn -0.0381 0.9992 0.0068
vn 0.2062 -0.3714 0.9053
usemtl (null)
s off
f 5/1/1 2/2/1 8/3/1 7/4/1
f 2/2/2 3/5/2 9/6/2 8/3/2
f 3/5/3 6/7/3 10/8/3 9/6/3
f 1/9/4 5/1/4 12/10/4 11/11/4
f 23/12/5 6/7/5 13/13/5 24/14/5
f 6/7/6 4/15/6 14/16/6 13/13/6
f 4/15/7 1/9/7 11/11/7 14/16/7
f 7/4/8 8/3/8 15/17/8
f 8/3/9 9/6/9 15/17/9
f 9/6/10 10/8/10 15/17/10
f 10/8/11 23/12/11 7/4/11 15/17/11
f 11/11/12 12/10/12 16/18/12
f 12/10/13 24/14/13 13/13/13 16/18/13
f 13/13/14 14/16/14 16/18/14
f 14/16/15 11/11/15 16/18/15
f 1/19/16 20/20/16 21/21/16 5/22/16
f 4/23/17 6/24/17 22/25/17 19/26/17
f 6/24/17 3/27/17 18/28/17 22/25/17
f 2/29/18 17/30/18 18/28/18 3/27/18
f 5/22/16 21/21/16 17/30/16 2/29/16
f 23/12/19 5/1/19 7/4/19
f 6/7/20 23/12/20 10/8/20
f 5/1/21 23/12/21 24/14/21 12/10/21
f 53/31/22 31/32/22 42/33/22 63/34/22
f 64/35/23 26/36/23 30/37/23 66/38/23
f 50/39/24 25/40/24 29/41/24 52/42/24
f 65/43/25 28/44/25 32/45/25 67/46/25
f 51/47/26 27/48/26 31/32/26 53/31/26
f 67/46/27 32/45/27 49/49/27 77/50/27
f 66/38/28 30/37/28 38/51/28 72/52/28
f 33/53/29 39/54/29 54/55/29
f 54/56/30 39/57/30 40/58/30 55/59/30
f 47/60/31 48/61/31 61/62/31 60/63/31
f 56/64/32 41/65/32 38/66/32 57/67/32
f 57/67/33 38/66/33 58/68/33
f 33/53/34 46/69/34 59/70/34
f 59/71/35 46/72/35 47/60/35 60/63/35
f 44/73/36 43/74/36 70/75/36 69/76/36
f 61/62/37 48/61/37 49/77/37 62/78/37
f 62/78/38 49/77/38 63/34/38
f 33/53/39 45/79/39 68/80/39
f 68/81/40 45/82/40 44/73/40 69/76/40
f 36/83/41 35/84/41 75/85/41 74/86/41
f 70/75/42 43/74/42 42/87/42 71/88/42
f 71/88/43 42/87/43 72/52/43
f 33/53/44 37/89/44 73/90/44
f 73/91/45 37/92/45 36/83/45 74/86/45
f 103/93/46 102/94/46 121/95/46 120/96/46
f 75/85/47 35/84/47 34/97/47 76/98/47
f 76/98/48 34/97/48 77/50/48
f 52/42/49 29/41/49 34/99/49 58/68/49
f 30/100/50 52/42/50 58/68/50 38/66/50
f 42/33/51 62/78/51 63/34/51
f 43/101/52 61/62/52 62/78/52 42/33/52
f 40/102/53 69/76/53 70/75/53 41/103/53
f 45/104/54 59/71/54 60/63/54 44/105/54
f 33/53/55 59/70/55 45/79/55
f 34/99/56 57/67/56 58/68/56
f 35/106/57 56/64/57 57/67/57 34/99/57
f 44/105/58 60/63/58 61/62/58 43/101/58
f 37/107/59 54/56/59 55/59/59 36/108/59
f 33/53/60 54/55/60 37/89/60
f 28/109/61 51/47/61 53/31/61 32/110/61
f 26/111/62 50/39/62 52/42/62 30/100/62
f 32/110/63 53/31/63 63/34/63 49/77/63
f 49/49/64 76/98/64 77/50/64
f 48/112/65 75/85/65 76/98/65 49/49/65
f 40/58/66 41/65/66 56/64/66 55/59/66
f 46/113/67 73/91/67 74/86/67 47/114/67
f 33/53/68 73/90/68 46/69/68
f 38/51/69 71/88/69 72/52/69
f 41/103/70 70/75/70 71/88/70 38/51/70
f 47/114/71 74/86/71 75/85/71 48/112/71
f 39/115/72 68/81/72 69/76/72 40/102/72
f 33/53/73 68/80/73 39/54/73
f 31/116/74 66/38/74 72/52/74 42/87/74
f 29/117/75 67/46/75 77/50/75 34/97/75
f 25/118/76 65/43/76 67/46/76 29/117/76
f 27/119/77 64/35/77 66/38/77 31/116/77
f 82/120/78 84/121/78 85/122/78 79/123/78
f 79/123/79 85/122/79 86/124/79 80/125/79
f 80/125/80 86/124/80 87/126/80 83/127/80
f 78/128/81 88/129/81 89/130/81 82/120/81
f 94/131/82 95/132/82 90/133/82 83/127/82
f 83/127/83 90/133/83 91/134/83 81/135/83
f 81/135/84 91/134/84 88/129/84 78/128/84
f 84/121/85 92/136/85 85/122/85
f 85/122/86 92/136/86 86/124/86
f 86/124/87 92/136/87 87/126/87
f 87/126/88 92/136/88 84/121/88 94/131/88
f 88/129/89 93/137/89 89/130/89
f 89/130/90 93/137/90 90/133/90 95/132/90
f 90/133/91 93/137/91 91/134/91
f 91/134/92 93/137/92 88/129/92
f 78/138/16 82/139/16 21/21/16 20/20/16
f 81/140/17 19/26/17 22/25/17 83/141/17
f 83/141/17 22/25/17 18/28/17 80/142/17
f 79/143/18 80/142/18 18/28/18 17/30/18
f 82/139/16 79/143/16 17/30/16 21/21/16
f 94/131/93 84/121/93 82/120/93
f 83/127/94 87/126/94 94/131/94
f 82/120/95 89/130/95 95/132/95 94/131/95
f 118/144/96 128/145/96 109/146/96 98/147/96
f 64/35/97 129/148/97 97/149/97 26/36/97
f 50/39/98 117/150/98 96/151/98 25/40/98
f 65/43/99 130/152/99 99/153/99 28/44/99
f 51/47/100 118/144/100 98/147/100 27/48/100
f 130/152/101 140/154/101 116/155/101 99/153/101
f 129/148/102 135/156/102 105/157/102 97/149/102
f 100/158/103 119/159/103 106/160/103
f 119/161/104 120/96/104 107/162/104 106/163/104
f 126/164/105 115/165/105 114/166/105 125/167/105
f 121/95/106 122/168/106 105/169/106 108/170/106
f 122/168/107 123/171/107 105/169/107
f 100/158/108 124/172/108 113/173/108
f 124/174/109 125/167/109 114/166/109 113/175/109
f 133/176/110 110/177/110 111/178/110 132/179/110
f 126/164/111 127/180/111 116/181/111 115/165/111
f 127/180/112 128/145/112 116/181/112
f 100/158/113 131/182/113 112/183/113
f 131/184/114 132/179/114 111/178/114 112/185/114
f 138/186/115 102/187/115 103/188/115 137/189/115
f 133/176/116 134/190/116 109/191/116 110/177/116
f 134/190/117 135/156/117 109/191/117
f 100/158/118 136/192/118 104/193/118
f 136/194/119 137/189/119 103/188/119 104/195/119
f 138/186/120 139/196/120 101/197/120 102/187/120
f 139/196/121 140/154/121 101/197/121
f 117/150/122 123/171/122 101/198/122 96/151/122
f 97/199/123 105/169/123 123/171/123 117/150/123
f 109/146/124 128/145/124 127/180/124
f 110/200/125 109/146/125 127/180/125 126/164/125
f 107/201/126 108/202/126 133/176/126 132/179/126
f 112/203/127 111/204/127 125/167/127 124/174/127
f 100/158/128 112/183/128 124/172/128
f 101/198/129 123/171/129 122/168/129
f 102/94/130 101/198/130 122/168/130 121/95/130
f 111/204/131 110/200/131 126/164/131 125/167/131
f 104/205/132 103/93/132 120/96/132 119/161/132
f 100/158/133 104/193/133 119/159/133
f 28/109/134 99/206/134 118/144/134 51/47/134
f 26/111/135 97/199/135 117/150/135 50/39/135
f 99/206/136 116/181/136 128/145/136 118/144/136
f 116/155/137 140/154/137 139/196/137
f 115/207/138 116/155/138 139/196/138 138/186/138
f 121/95/139 108/170/139 107/162/139 120/96/139
f 113/208/140 114/209/140 137/189/140 136/194/140
f 100/158/141 113/173/141 136/192/141
f 105/157/142 135/156/142 134/190/142
f 108/202/143 105/157/143 134/190/143 133/176/143
f 114/209/144 115/207/144 138/186/144 137/189/144
f 106/210/145 107/201/145 132/179/145 131/184/145
f 100/158/146 106/160/146 131/182/146
f 98/211/147 109/191/147 135/156/147 129/148/147
f 96/212/148 101/197/148 140/154/148 130/152/148
f 25/118/149 96/212/149 130/152/149 65/43/149
f 27/119/150 98/211/150 129/148/150 64/35/150
f 36/108/151 55/59/151 56/64/151 35/106/151
o DoorFrame_Cube
v 0.245007 0.025358 -1.383716
v 0.245007 5.329074 -1.383716
v 0.245007 5.329074 1.383716
v 0.245007 0.025358 1.383716
v -0.245007 0.025358 1.383716
v -0.245007 5.329074 1.383716
v -0.245007 5.329074 -1.383716
v -0.245007 0.025358 -1.383716
v 0.245007 0.025358 -1.680000
v 0.245007 0.025358 -1.680000
v 0.245007 0.025358 -1.598639
v 0.187476 5.625358 -1.680000
v 0.245007 5.567827 -1.622469
v 0.245007 0.025358 1.680000
v 0.245007 0.025358 1.680000
v 0.245007 0.025358 1.598639
v 0.187476 5.625358 1.680000
v 0.245007 5.567827 1.622469
v -0.245007 0.025358 -1.680000
v -0.245007 0.025358 -1.680000
v -0.245007 0.025358 -1.598639
v -0.187476 5.625358 -1.680000
v -0.245007 5.567827 -1.622469
v -0.245007 0.025358 1.680000
v -0.245007 0.025358 1.680000
v -0.245007 0.025358 1.598639
v -0.187476 5.625358 1.680000
v -0.245007 5.567827 1.622469
vt 0.953610 0.032587
vt 0.967179 0.032587
vt 0.406815 0.032587
vt 0.420384 0.032587
vt 0.456228 0.032587
vt 0.917766 0.032587
vt 0.957584 0.956932
vt 0.416410 0.956932
vt 0.456228 0.917114
vt 0.917766 0.917114
vt 0.406815 0.032587
vt 0.406815 0.966527
vt 0.406815 0.966527
vt 0.406815 0.032587
vt 0.420384 0.032587
vt 0.456228 0.032587
vt 0.953610 0.032587
vt 0.967179 0.032587
vt 0.967179 0.032587
vt 0.917766 0.032587
vt 0.967179 0.966527
vt 0.967179 0.966527
vt 0.416410 0.956932
vt 0.456228 0.917114
vt 0.957584 0.956932
vt 0.917766 0.917114
vt 0.967179 0.032587
vt 0.406815 0.032587
vn 0.0000 0.0000 1.0000
vn 1.0000 0.0000 0.0000
vn 0.0000 1.0000 0.0000
vn -1.0000 -0.0000 -0.0000
vn 0.0000 0.0000 -1.0000
vn 0.7107 0.0073 -0.7034
vn 0.7071 0.7071 0.0000
vn 0.7107 0.0073 0.7034
vn -0.7107 0.0073 0.7034
vn -0.7071 0.7071 0.0000
vn -0.7107 0.0073 -0.7034
vn 0.0000 -1.0000 0.0000
usemtl None
s off
f 161/213/152 160/214/152 164/215/152 166/216/152 145/217/152 148/218/152
f 153/219/153 158/220/153 143/221/153 142/222/153
f 154/223/152 157/224/152 167/225/152 165/226/152
f 158/220/153 154/223/153 156/227/153 144/228/153 143/221/153
f 151/229/154 150/230/154 159/231/154 161/213/154 148/218/154 141/232/154
f 167/225/154 157/224/154 152/233/154 162/234/154
f 166/216/154 165/226/154 154/223/154 156/227/154 144/228/154 145/217/154
f 151/229/153 150/230/153 153/219/153 142/222/153 141/232/153
f 166/216/155 165/226/155 168/235/155 146/236/155 145/217/155
f 168/235/155 163/237/155 147/238/155 146/236/155
f 163/237/155 159/231/155 161/213/155 148/218/155 147/238/155
f 159/231/156 162/234/156 152/233/156 150/230/156
f 149/239/152 150/230/152 151/229/152
f 154/223/152 155/240/152 156/227/152
f 159/231/152 160/214/152 161/213/152
f 164/215/152 165/226/152 166/216/152
f 149/239/157 152/233/157 153/219/157 150/230/157
f 152/233/158 157/224/158 158/220/158 153/219/158
f 157/224/159 155/240/159 154/223/159 158/220/159
f 168/235/160 165/226/160 164/215/160 167/225/160
f 167/225/161 162/234/161 163/237/161 168/235/161
f 162/234/162 160/214/162 159/231/162 163/237/162
f 156/227/163 155/240/163 149/239/163 151/229/163 141/232/163 144/228/163
