# Blender 3.4.1
# www.blender.org
mtllib Monitor.mtl
o Monitor2
v 0.246522 0.147913 0.246522
v 0.269496 0.000000 0.393500
v -0.246521 0.147913 0.246522
v -0.269496 0.000000 0.393500
v 0.169452 0.147913 -0.246521
v 0.169452 0.000000 -0.246521
v -0.169452 0.147913 -0.246521
v -0.169452 0.000000 -0.246521
v 0.246522 0.000000 0.246522
v -0.246521 0.000000 0.246522
v 0.155081 0.180555 0.176865
v -0.155081 0.180555 0.176865
v 0.155081 0.435931 0.152921
v -0.155081 0.435931 0.152921
v 0.155081 0.177400 0.143211
v -0.155081 0.177400 0.143211
v 0.155081 0.432776 0.119268
v -0.155081 0.432776 0.119268
v 0.129811 0.198207 0.141261
v -0.129811 0.198207 0.141261
v 0.129811 0.411970 0.121219
v -0.129811 0.411970 0.121219
v 0.099015 0.223563 0.138883
v -0.099015 0.223563 0.138883
v 0.099015 0.386613 0.123596
v -0.099015 0.386613 0.123596
v 0.213010 0.130704 0.263953
v 0.232890 0.017540 0.376402
v -0.213615 0.130704 0.263953
v -0.233495 0.017540 0.376402
v 0.222950 0.074122 0.320177
v -0.223555 0.074122 0.320177
v 0.078369 0.130704 0.263953
v 0.110832 0.130704 0.263953
v 0.120870 0.017540 0.376402
v 0.087068 0.017540 0.376402
v -0.110731 0.130704 0.263953
v -0.017337 0.130704 0.263953
v -0.018006 0.017540 0.376402
v -0.120540 0.017540 0.376402
v 0.222950 0.063740 0.309730
v 0.232890 0.007158 0.365955
v -0.223555 0.063740 0.309730
v -0.233495 0.007158 0.365955
v 0.213010 0.120322 0.253505
v -0.213615 0.120322 0.253505
v 0.087068 0.007158 0.365955
v 0.120870 0.007158 0.365955
v 0.110832 0.120322 0.253505
v 0.078369 0.120322 0.253505
v -0.017337 0.120322 0.253505
v -0.120540 0.007158 0.365955
v -0.110731 0.120322 0.253505
v -0.018006 0.007158 0.365955
v -0.197748 0.113208 0.260905
v -0.205447 0.069384 0.304453
v -0.121737 0.113208 0.260905
v -0.125716 0.069384 0.304453
v -0.102269 0.113208 0.260905
v -0.026258 0.113208 0.260905
v -0.106248 0.069384 0.304453
v -0.026517 0.069384 0.304453
v -0.206906 0.058427 0.315340
v -0.214605 0.014603 0.358887
v -0.131154 0.014603 0.358887
v -0.127176 0.058427 0.315340
v -0.106778 0.058427 0.315340
v -0.027047 0.058427 0.315340
v -0.027306 0.014603 0.358887
v -0.110757 0.014603 0.358887
v 0.073082 0.058427 0.315340
v 0.076543 0.014603 0.358887
v -0.006649 0.058427 0.315340
v -0.006908 0.014603 0.358887
v 0.069220 0.113208 0.260905
v 0.072681 0.069384 0.304453
v -0.006791 0.113208 0.260905
v -0.007049 0.069384 0.304453
v 0.197590 0.113208 0.260905
v 0.205289 0.069384 0.304453
v 0.124264 0.069384 0.304453
v 0.120342 0.113208 0.260905
v 0.206741 0.058427 0.315340
v 0.214440 0.014603 0.358887
v 0.129639 0.014603 0.358887
v 0.125716 0.058427 0.315340
v -0.186116 0.122808 0.285096
v -0.191262 0.093513 0.314205
v -0.135305 0.122808 0.285096
v -0.137965 0.093513 0.314205
v -0.090020 0.122808 0.285096
v -0.039210 0.122808 0.285096
v -0.092680 0.093513 0.314205
v -0.039383 0.093513 0.314205
v -0.194658 0.068027 0.339530
v -0.199804 0.038732 0.368640
v -0.144020 0.038732 0.368640
v -0.141360 0.068027 0.339530
v -0.093912 0.068027 0.339530
v -0.040615 0.068027 0.339530
v -0.040788 0.038732 0.368640
v -0.096572 0.038732 0.368640
v 0.060130 0.068027 0.339530
v 0.062444 0.038732 0.368640
v 0.006833 0.068027 0.339530
v 0.006660 0.038732 0.368640
v 0.056886 0.122808 0.285096
v 0.059199 0.093513 0.314206
v 0.006075 0.122808 0.285096
v 0.005902 0.093513 0.314205
v 0.185748 0.122808 0.285096
v 0.190894 0.093513 0.314205
v 0.136732 0.093513 0.314205
v 0.134110 0.122808 0.285096
v 0.194273 0.068027 0.339530
v 0.199419 0.038732 0.368640
v 0.142733 0.038732 0.368640
v 0.140111 0.068027 0.339530
v 0.192031 0.147913 0.163387
v 0.178041 0.147913 0.179925
v 0.204970 0.147913 0.193096
v -0.178041 0.147913 0.179925
v -0.192031 0.147913 0.163387
v -0.204970 0.147913 0.193096
v 0.115174 0.147913 -0.205865
v 0.134571 0.147913 -0.189229
v 0.143187 0.147913 -0.218116
v -0.134570 0.147913 -0.189229
v -0.115174 0.147913 -0.205865
v -0.143187 0.147913 -0.218116
v 0.177138 0.454093 0.151218
v 0.192102 0.446908 0.135342
v 0.175230 0.463857 0.133856
v -0.192102 0.446908 0.135342
v -0.177138 0.454093 0.151218
v -0.175230 0.463857 0.133856
v 0.115174 0.338355 -0.233531
v 0.117580 0.359584 -0.219926
v 0.134462 0.342897 -0.217537
v -0.134462 0.342897 -0.217537
v -0.117580 0.359584 -0.219926
v -0.115174 0.338355 -0.233531
vn -0.0000 0.0933 0.9956
vn -0.9880 -0.0000 -0.1544
vn -0.0000 -0.0000 -1.0000
vn -0.0000 -1.0000 -0.0000
vn -0.0068 0.7054 0.7088
vn -0.0000 1.0000 -0.0000
vn -0.0000 -0.1438 -0.9896
vn 0.9872 -0.0180 -0.1584
vn -0.0000 0.9592 -0.2827
vn 0.9880 -0.0000 -0.1544
vn -1.0000 -0.0000 -0.0000
vn -0.9872 -0.0180 -0.1584
vn -0.0000 -0.9956 0.0933
vn 1.0000 -0.0000 -0.0000
vn -0.0000 0.9956 -0.0933
vn -0.0000 0.0934 0.9956
vn -0.0000 0.7093 -0.7049
vn 0.0067 0.7054 0.7088
vn -0.0000 0.6980 0.7161
vn -0.0000 -0.7093 0.7049
vn 0.9923 -0.0877 0.0872
vn -0.0000 0.7116 0.7026
vn -0.9923 -0.0877 0.0872
vn -0.0000 0.6885 0.7253
vn -0.0000 0.7209 0.6931
vn -0.0137 0.7060 0.7081
vn -0.0000 0.7049 0.7093
vn -0.0000 0.7049 0.7094
vn -0.0000 -0.3747 0.9271
vn -0.0000 0.9295 -0.3689
vn -0.0133 0.7060 0.7081
vn -0.8692 0.3860 0.3091
vn -0.8748 0.4100 0.2580
vn 0.8790 0.3692 0.3017
vn 0.0138 0.7057 0.7084
vn 0.8705 0.3443 0.3516
vn 0.0140 0.7060 0.7080
vn -0.0135 0.7057 0.7084
vn 0.0137 0.7060 0.7081
vn 0.8621 0.4253 0.2756
vn -0.8655 0.4213 0.2710
vn -0.8801 0.3373 0.3342
vn 0.8787 0.2940 0.3762
vn -0.8658 0.3116 0.3915
vn 0.8695 0.3810 0.3143
vn 0.8692 0.3066 0.3880
vn 0.8717 0.4139 0.2625
vn -0.8705 0.3495 0.3465
vn -0.8755 0.2989 0.3797
vn 0.8801 0.3321 0.3394
vn -0.8787 0.3743 0.2964
vn 0.6595 0.6839 0.3121
vn -0.6595 0.6839 0.3121
vn 0.5192 0.4187 -0.7451
vn -0.5192 0.4187 -0.7451
vn -0.6894 0.6566 -0.3060
vn -0.0000 0.8716 0.4902
vn -0.0000 0.5396 -0.8419
vn 0.6894 0.6566 -0.3060
vn -0.6484 -0.1092 -0.7534
vn 0.6484 -0.1092 -0.7535
vn -0.7512 0.0627 0.6571
vn 0.7512 0.0627 0.6571
vt 0.923886 0.693891
vt 0.385382 0.306167
vt 0.336859 0.396544
vt 0.838197 0.783319
vt 0.371768 0.378779
vt 0.324644 0.520946
vt 0.677557 0.306167
vt 0.017455 0.396544
vt 0.238986 0.431453
vt 0.691172 0.378779
vt 0.813505 0.218287
vt 0.431053 0.017455
vt 0.923886 0.413688
vt 0.726081 0.218287
vt 0.277573 0.017455
vt 0.838197 0.419586
vt 0.324644 0.801316
vt 0.813505 0.017455
vt 0.631886 0.017455
vt 0.238986 0.795404
vt 0.726081 0.017455
vt 0.076740 0.017455
vt 0.323244 0.309487
vt 0.838197 0.699789
vt 0.238986 0.515033
vt 0.031069 0.309487
vt 0.195792 0.681016
vt 0.555426 0.858326
vt 0.635063 0.676753
vt 0.116984 0.681016
vt 0.555426 0.674525
vt 0.635063 0.860553
vt 0.779356 0.676753
vt 0.195792 0.830412
vt 0.039782 0.681016
vt 0.779356 0.860553
vt 0.039782 0.864816
vt 0.116984 0.830464
vt 0.173839 0.681809
vt 0.533097 0.858326
vt 1.000000 0.000000
vt 0.138930 0.681807
vt 0.533097 0.674525
vt 0.000000 0.000000
vt 0.173839 0.831205
vt 0.017455 0.681016
vt 1.000000 1.000000
vt 0.017455 0.864816
vt 0.138930 0.831255
vt 0.000000 1.000000
vt 0.918938 0.080959
vt 0.082866 0.080959
vt 0.918938 0.918426
vt 0.082866 0.918426
vt 0.819765 0.180298
vt 0.182039 0.180298
vt 0.819764 0.819087
vt 0.182039 0.819087
vt 0.082075 0.681016
vt 0.405241 0.314809
vt 0.777818 0.347513
vt 0.393461 0.370362
vt 0.777818 0.253196
vt 0.658057 0.314808
vt 0.734495 0.253518
vt 0.082075 0.933832
vt 0.734495 0.347866
vt 0.669838 0.370362
vt 0.399351 0.342586
vt 0.777818 0.300354
vt 0.663947 0.342585
vt 0.734495 0.300692
vt 0.485029 0.314809
vt 0.082075 0.760804
vt 0.465791 0.314809
vt 0.082075 0.741566
vt 0.459843 0.370362
vt 0.479874 0.370362
vt 0.597088 0.314808
vt 0.082075 0.872863
vt 0.541744 0.314808
vt 0.082075 0.817518
vt 0.542140 0.370362
vt 0.602901 0.370362
vt 0.769404 0.300682
vt 0.876192 0.287941
vt 0.393461 0.363300
vt 0.769404 0.253524
vt 0.903969 0.293832
vt 0.726081 0.300370
vt 0.876191 0.023345
vt 0.726081 0.347545
vt 0.669838 0.363300
vt 0.903969 0.017455
vt 0.074691 0.681016
vt 0.769404 0.347840
vt 0.848415 0.282051
vt 0.726081 0.253196
vt 0.074691 0.933832
vt 0.848415 0.029235
vt 0.479874 0.363300
vt 0.903969 0.207418
vt 0.459843 0.363300
vt 0.903969 0.227450
vt 0.074691 0.741566
vt 0.848415 0.221501
vt 0.074691 0.760804
vt 0.848415 0.202263
vt 0.074691 0.817518
vt 0.848415 0.145549
vt 0.602901 0.363300
vt 0.903969 0.084391
vt 0.074691 0.872863
vt 0.848415 0.090204
vt 0.542140 0.363300
vt 0.903969 0.145152
vt 0.852101 0.038638
vt 0.931946 0.375808
vt 0.968346 0.818228
vt 0.968346 0.854947
vt 0.873615 0.034076
vt 0.938878 0.064703
vt 0.931946 0.330764
vt 0.852101 0.083682
vt 0.982545 0.367329
vt 0.873615 0.081324
vt 0.938878 0.017455
vt 0.982545 0.330764
vt 0.852101 0.095218
vt 0.371768 0.868926
vt 0.958795 0.450346
vt 0.852101 0.140262
vt 0.371768 0.913970
vt 0.958795 0.699794
vt 0.873615 0.092860
vt 0.902526 0.949838
vt 0.958795 0.413688
vt 0.873615 0.140109
vt 0.902526 0.902589
vt 0.958795 0.736395
vt 0.878993 0.033211
vt 0.683116 0.909068
vt 0.268406 0.883474
vt 0.900507 0.028649
vt 0.683116 0.945788
vt 0.017455 0.949178
vt 0.900507 0.078101
vt 0.017455 0.899725
vt 0.952666 0.926421
vt 0.878993 0.080459
vt 0.268406 0.836226
vt 0.952666 0.889856
vt 0.878993 0.092547
vt 0.733809 0.909068
vt 0.838197 0.818228
vt 0.878993 0.139795
vt 0.305505 0.954984
vt 0.838197 0.865476
vt 0.900507 0.139641
vt 0.305505 0.918383
vt 0.533097 0.893235
vt 0.733809 0.945726
vt 0.900507 0.090189
vt 0.533097 0.942687
vt 0.878993 0.199130
vt 0.784503 0.945716
vt 0.303315 0.883474
vt 0.900507 0.201181
vt 0.784503 0.909068
vt 0.902526 0.818228
vt 0.878993 0.151882
vt 0.303315 0.836226
vt 0.954665 0.181769
vt 0.900507 0.151729
vt 0.902526 0.867680
vt 0.954665 0.218375
vt 0.465516 0.868926
vt 0.974484 0.521903
vt 0.852101 0.196842
vt 0.938878 0.099612
vt 0.873615 0.198893
vt 0.974484 0.485255
vt 0.465516 0.913970
vt 0.852101 0.151798
vt 0.974487 0.556812
vt 0.938878 0.146860
vt 0.873615 0.151645
vt 0.974487 0.593417
vt 0.852101 0.272913
vt 0.954591 0.289994
vt 0.173839 0.911891
vt 0.873615 0.277475
vt 0.954591 0.253284
vt 0.853428 0.948400
vt 0.873615 0.229461
vt 0.958795 0.628326
vt 0.853428 0.900385
vt 0.852101 0.227136
vt 0.958795 0.664885
vt 0.173839 0.866114
vt 0.878993 0.278336
vt 0.616619 0.909068
vt 0.838197 0.378779
vt 0.900507 0.282899
vt 0.616619 0.945779
vt 0.116984 0.866164
vt 0.900507 0.232646
vt 0.238986 0.918383
vt 0.116984 0.916417
vt 0.878993 0.230321
vt 0.238986 0.954941
vt 0.838197 0.330764
vt 0.952666 0.823721
vt 0.916907 0.368915
vt 0.952666 0.848267
vt 0.902526 0.371964
vt 0.954108 0.056297
vt 0.916907 0.338805
vt 0.966855 0.361073
vt 0.902526 0.340381
vt 0.954108 0.024713
vt 0.966855 0.336631
vt 0.386806 0.876185
vt 0.974483 0.444616
vt 0.386806 0.906295
vt 0.974487 0.705807
vt 0.401187 0.874609
vt 0.917757 0.941797
vt 0.974483 0.420111
vt 0.401187 0.906192
vt 0.917757 0.910214
vt 0.974487 0.730273
vt 0.667340 0.914551
vt 0.253368 0.876215
vt 0.238986 0.879265
vt 0.667340 0.939096
vt 0.032685 0.940407
vt 0.238986 0.846207
vt 0.032685 0.907349
vt 0.968453 0.920549
vt 0.253368 0.844631
vt 0.968453 0.896107
vt 0.718025 0.914790
vt 0.853235 0.825852
vt 0.289717 0.948978
vt 0.853235 0.857436
vt 0.289717 0.924511
vt 0.548328 0.901224
vt 0.867617 0.857333
vt 0.718025 0.939294
vt 0.548328 0.934282
vt 0.867617 0.824276
vt 0.768718 0.939952
vt 0.318353 0.875799
vt 0.332735 0.877170
vt 0.768718 0.915455
vt 0.917757 0.826583
vt 0.318353 0.844215
vt 0.938878 0.187731
vt 0.332735 0.844113
vt 0.917757 0.859640
vt 0.938878 0.212201
vt 0.958795 0.516130
vt 0.450478 0.876236
vt 0.954109 0.107601
vt 0.958795 0.491633
vt 0.436097 0.874865
vt 0.450478 0.906346
vt 0.958795 0.562782
vt 0.954109 0.139185
vt 0.436097 0.906448
vt 0.958795 0.587252
vt 0.938878 0.284497
vt 0.188877 0.904873
vt 0.203259 0.907923
vt 0.938878 0.259958
vt 0.838197 0.939870
vt 0.203259 0.875827
vt 0.974519 0.634207
vt 0.838197 0.907774
vt 0.974519 0.658644
vt 0.188877 0.874273
vt 0.632430 0.914555
vt 0.853235 0.371391
vt 0.867617 0.374440
vt 0.632430 0.939095
vt 0.132215 0.875065
vt 0.867617 0.340848
vt 0.254808 0.924269
vt 0.132215 0.908657
vt 0.254808 0.948707
vt 0.853235 0.339294
vt 0.417673 0.257485
vt 0.616619 0.617058
vt 0.425964 0.267170
vt 0.616865 0.628238
vt 0.616619 0.663147
vt 0.410006 0.274882
vt 0.636976 0.267170
vt 0.203817 0.646107
vt 0.616619 0.874159
vt 0.645266 0.257485
vt 0.204077 0.634936
vt 0.652934 0.274882
vt 0.463218 0.041262
vt 0.372478 0.822523
vt 0.649137 0.419546
vt 0.451724 0.051003
vt 0.371768 0.834017
vt 0.446618 0.034088
vt 0.171485 0.437312
vt 0.611215 0.051003
vt 0.371768 0.674525
vt 0.599721 0.041262
vt 0.372478 0.686020
vt 0.616322 0.034088
vt 0.789618 0.663682
vt 0.371768 0.639616
vt 0.796139 0.628238
vt 0.791587 0.616942
vt 0.372899 0.630337
vt 0.803288 0.618934
vt 0.029171 0.634821
vt 0.789618 0.873625
vt 0.581710 0.639616
vt 0.024604 0.646107
vt 0.017455 0.636798
vt 0.580580 0.630338
vt 0.486221 0.822523
vt 0.407062 0.413688
vt 0.498188 0.823948
vt 0.775624 0.415145
vt 0.764006 0.413688
vt 0.488223 0.833953
vt 0.056656 0.431453
vt 0.488223 0.674590
vt 0.546416 0.413688
vt 0.045022 0.432894
vt 0.498188 0.684594
vt 0.486221 0.686020
s 0
usemtl Monitor
f 120/297/1 131/317/1 13/33/1 11/29/1
f 8/20/2 10/25/2 3/6/2 7/17/2
f 8/21/3 7/18/3 5/11/3 6/14/3
f 9/23/4 2/3/4 4/8/4 10/26/4
f 3/7/5 4/10/5 30/68/5 32/71/5 29/64/5
f 4/9/2 3/6/2 10/25/2
f 131/317/1 135/324/1 14/36/1 13/33/1
f 5/12/6 7/19/6 130/316/6 129/314/6 125/305/6 127/310/6
f 125/306/7 129/315/7 142/340/7 137/329/7
f 119/294/8 126/307/8 139/333/8 132/320/8
f 135/324/1 122/301/1 12/32/1 14/36/1
f 1/2/6 5/12/6 127/310/6 126/308/6 119/293/6 121/298/6
f 133/321/9 138/330/9 141/337/9 136/328/9
f 6/15/4 9/23/4 10/26/4 8/22/4
f 2/4/10 9/24/10 1/1/10
f 9/24/10 6/16/10 5/13/10 1/1/10
f 11/27/11 13/34/11 17/45/11 15/39/11
f 7/19/6 3/7/6 124/304/6 123/302/6 128/312/6 130/316/6
f 3/7/6 1/2/6 121/298/6 120/295/6 122/299/6 124/304/6
f 128/311/12 123/303/12 134/323/12 140/335/12
f 13/35/13 14/37/13 18/48/13 17/46/13
f 14/38/14 12/30/14 16/42/14 18/49/14
f 12/31/15 11/28/15 15/40/15 16/43/15
f 35/77/17 28/62/17 42/87/17 48/103/17
f 2/5/18 1/2/18 27/60/18 31/69/18 28/62/18
f 40/84/17 39/83/17 54/115/17 52/111/17
f 39/83/17 36/78/17 47/101/17 54/115/17
f 4/10/19 2/5/19 28/62/19 35/77/19 36/78/19 39/83/19 40/84/19 30/68/19
f 36/78/17 35/77/17 48/103/17 47/101/17
f 27/59/20 34/76/20 49/105/20 45/95/20
f 32/72/21 30/67/21 44/92/21 43/90/21
f 1/2/22 3/7/22 29/64/22 37/79/22 38/81/22 33/73/22 34/75/22 27/60/22
f 33/74/20 38/82/20 51/109/20 50/107/20
f 28/63/23 31/70/23 41/85/23 42/88/23
f 38/82/20 37/80/20 53/113/20 51/109/20
f 29/65/21 32/72/21 43/90/21 46/98/21
f 44/94/24 52/112/24 65/147/24 64/144/24
f 45/97/25 49/106/25 82/198/25 79/189/25
f 46/100/26 43/91/26 56/121/26 55/117/26
f 70/163/27 67/153/27 66/150/27 65/147/27
f 65/147/24 52/112/24 70/163/24
f 66/150/27 58/126/27 56/121/27 63/141/27
f 67/153/28 61/135/28 58/126/28 66/150/28
f 61/135/27 59/129/27 57/124/27 58/126/27
f 61/135/27 67/153/27 68/156/27 62/138/27
f 34/76/20 33/74/20 50/107/20 49/105/20
f 30/68/17 40/84/17 52/111/17 44/93/17
f 31/70/23 27/61/23 45/96/23 41/85/23
f 37/80/20 29/66/20 46/99/20 53/113/20
f 78/186/29 76/180/29 108/265/29 110/270/29
f 74/174/27 73/171/27 68/156/27 69/159/27
f 53/114/25 46/100/25 55/117/25 57/124/25
f 74/174/24 69/159/24 54/116/24
f 57/123/30 55/118/30 87/214/30 89/218/30
f 51/110/25 53/114/25 59/129/25 60/132/25
f 73/171/27 78/187/27 62/138/27 68/156/27
f 78/187/27 77/184/27 60/132/27 62/138/27
f 75/177/30 77/183/30 109/268/30 107/264/30
f 43/91/31 44/94/31 64/144/31 63/141/31
f 73/171/28 71/165/28 76/181/28 78/187/28
f 81/195/27 82/198/27 75/179/27 76/181/27
f 67/154/32 70/162/32 102/250/32 99/243/32
f 81/195/27 76/181/27 71/165/27 86/210/27
f 86/210/27 71/165/27 72/168/27 85/207/27
f 52/112/24 54/116/24 69/159/24 70/163/24
f 55/119/33 56/120/33 88/215/33 87/213/33
f 48/104/24 85/207/24 72/168/24 47/102/24
f 86/210/28 83/201/28 80/192/28 81/195/28
f 54/116/24 47/102/24 72/168/24 74/174/24
f 76/182/34 75/178/34 107/263/34 108/266/34
f 83/201/35 41/86/35 80/192/35
f 49/106/25 50/108/25 75/179/25 82/198/25
f 50/108/25 51/110/25 77/184/25 75/179/25
f 69/160/36 68/157/36 100/245/36 101/247/36
f 51/110/25 60/132/25 77/184/25
f 41/86/37 45/97/37 79/189/37 80/192/37
f 53/114/25 57/124/25 59/129/25
f 70/164/29 69/161/29 101/248/29 102/251/29
f 48/104/24 42/89/24 84/204/24 85/207/24
f 43/91/38 63/141/38 56/121/38
f 42/89/39 41/86/39 83/201/39 84/204/39
f 90/220/27 89/218/27 87/214/27 88/216/27
f 94/230/27 92/225/27 91/223/27 93/227/27
f 97/238/27 98/241/27 95/234/27 96/235/27
f 101/249/27 100/246/27 99/244/27 102/252/27
f 104/255/27 103/254/27 105/258/27 106/260/27
f 108/267/27 107/264/27 109/268/27 110/271/27
f 112/275/27 111/274/27 114/282/27 113/278/27
f 116/285/27 115/284/27 118/292/27 117/288/27
f 56/122/29 58/127/29 90/221/29 88/217/29
f 84/205/40 83/202/40 115/283/40 116/286/40
f 63/142/41 64/145/41 96/236/41 95/233/41
f 77/185/42 78/188/42 110/272/42 109/269/42
f 58/128/43 57/125/43 89/219/43 90/222/43
f 86/211/44 85/208/44 117/289/44 118/291/44
f 64/146/29 65/148/29 97/239/29 96/237/29
f 83/203/30 86/212/30 118/292/30 115/284/30
f 66/151/30 63/143/30 95/234/30 98/241/30
f 72/169/45 71/166/45 103/253/45 104/256/45
f 85/209/29 84/206/29 116/287/29 117/290/29
f 65/149/46 66/152/46 98/242/46 97/240/46
f 71/167/30 73/172/30 105/258/30 103/254/30
f 74/175/29 72/170/29 104/257/29 106/261/29
f 80/193/47 79/190/47 111/273/47 112/276/47
f 60/133/30 59/130/30 91/223/30 92/225/30
f 73/173/48 74/176/48 106/262/48 105/259/48
f 82/199/49 81/196/49 113/279/49 114/281/49
f 61/136/29 62/139/29 94/231/29 93/228/29
f 79/191/30 82/200/30 114/282/30 111/274/30
f 62/140/50 60/134/50 92/226/50 94/232/50
f 68/158/30 67/155/30 99/244/30 100/246/30
f 81/197/29 80/194/29 112/277/29 113/280/29
f 59/131/51 61/137/51 93/229/51 91/224/51
f 119/293/6 120/295/6 121/298/6
f 122/299/6 123/302/6 124/304/6
f 125/305/6 126/308/6 127/310/6
f 128/312/6 129/314/6 130/316/6
f 131/319/52 132/320/52 133/322/52
f 134/323/53 135/326/53 136/327/53
f 137/329/54 138/331/54 139/334/54
f 140/336/55 141/339/55 142/340/55
f 136/327/56 141/338/56 140/335/56 134/323/56
f 133/321/57 136/328/57 135/325/57 131/318/57
f 141/339/58 138/331/58 137/329/58 142/340/58
f 138/332/59 133/322/59 132/320/59 139/333/59
f 128/313/60 140/336/60 142/340/60 129/315/60
f 139/334/61 126/309/61 125/306/61 137/329/61
f 122/300/62 135/326/62 134/323/62 123/303/62
f 131/319/63 120/296/63 119/294/63 132/320/63
f 122/301/16 120/297/16 11/29/16 12/32/16
usemtl MonitorScreen
f 18/50/1 16/44/1 20/52/1 22/54/1
f 22/54/1 20/52/1 24/56/1 26/58/1
f 16/44/16 15/41/16 19/51/16 20/52/16
f 15/41/1 17/47/1 21/53/1 19/51/1
f 17/47/1 18/50/1 22/54/1 21/53/1
f 24/56/1 23/55/1 25/57/1 26/58/1
f 20/52/1 19/51/1 23/55/1 24/56/1
f 19/51/1 21/53/1 25/57/1 23/55/1
f 21/53/1 22/54/1 26/58/1 25/57/1
