# Blender 4.0.2
# www.blender.org
mtllib untitled3.mtl
o Cube
v 0.900000 1.100000 -0.900000
v 0.900000 1.000000 -0.900000
v 0.900000 1.100000 0.900000
v 0.900000 1.000000 0.900000
v -1.000000 1.100000 -0.900000
v -1.000000 1.000000 -0.900000
v -1.000000 1.100000 0.900000
v -1.000000 1.000000 0.900000
v -1.000000 1.000000 -0.900000
v -1.000000 1.000000 0.900000
v -1.000000 1.100000 0.900000
v -1.000000 1.100000 -0.900000
v -2.900000 1.000000 -0.900000
v -2.900000 1.000000 0.900000
v -2.900000 1.100000 0.900000
v -2.900000 1.100000 -0.900000
v -1.000000 1.000000 -0.800000
v 0.900000 1.100000 -0.800000
v -1.000000 1.100000 -0.800000
v 0.900000 1.000000 -0.800000
v -1.000000 1.000000 -0.800000
v -1.000000 1.100000 -0.800000
v -2.900000 1.000000 -0.800000
v -2.900000 1.100000 -0.800000
v -1.000000 1.000000 0.820000
v 0.900000 1.100000 0.820000
v -1.000000 1.000000 0.820000
v -2.900000 1.000000 0.820000
v -1.000000 1.100000 0.820000
v 0.900000 1.000000 0.820000
v -1.000000 1.100000 0.820000
v -2.900000 1.100000 0.820000
v -2.800000 1.000000 -0.900000
v -2.800000 1.100000 -0.900000
v -2.800000 1.000000 0.900000
v -2.800000 1.100000 0.900000
v -2.800000 1.100000 -0.800000
v -2.800000 1.000000 -0.800000
v -2.800000 1.100000 0.820000
v -2.800000 1.000000 0.820000
v 0.800000 1.000000 -0.900000
v 0.800000 1.100000 0.900000
v 0.800000 1.000000 0.900000
v 0.800000 1.100000 -0.900000
v 0.800000 1.000000 -0.800000
v 0.800000 1.100000 -0.800000
v 0.800000 1.000000 0.820000
v 0.800000 1.100000 0.820000
v -1.000000 0.950000 0.820000
v -1.000000 0.950000 0.900000
v 0.800000 0.950000 -0.900000
v -1.000000 0.950000 -0.900000
v 0.800000 0.950000 0.900000
v 0.900000 0.950000 0.900000
v 0.900000 0.950000 -0.800000
v 0.900000 0.950000 -0.900000
v -1.000000 0.950000 0.820000
v -1.000000 0.950000 0.900000
v -2.900000 0.950000 0.820000
v -2.900000 0.950000 0.900000
v -2.800000 0.950000 -0.900000
v -2.900000 0.950000 -0.900000
v -2.800000 0.950000 0.900000
v -1.000000 0.950000 -0.800000
v 0.900000 0.950000 0.820000
v -1.000000 0.950000 -0.900000
v -1.000000 0.950000 -0.800000
v -2.900000 0.950000 -0.800000
v -2.800000 0.950000 -0.800000
v 0.800000 0.950000 -0.800000
v -2.800000 0.950000 0.820000
v 0.800000 0.950000 0.820000
v -1.000000 1.100000 0.658000
v 0.900000 1.000000 0.658000
v -1.000000 1.100000 0.658000
v -2.900000 1.100000 0.658000
v -1.000000 1.000000 0.658000
v 0.900000 1.100000 0.658000
v -1.000000 1.000000 0.658000
v -2.900000 1.000000 0.658000
v -2.800000 1.000000 0.658000
v -2.800000 1.100000 0.658000
v 0.800000 1.100000 0.658000
v 0.800000 1.000000 0.658000
v 0.900000 0.950000 0.658000
v -2.900000 0.950000 0.658000
v -2.800000 0.950000 0.658000
v 0.800000 0.950000 0.658000
v -1.000000 1.100000 -0.654200
v 0.900000 1.000000 -0.654200
v -1.000000 1.100000 -0.654200
v -2.900000 1.100000 -0.654200
v -2.800000 1.000000 -0.654200
v 0.900000 0.950000 -0.654200
v -2.800000 0.950000 -0.654200
v -1.000000 1.000000 -0.654200
v 0.900000 1.100000 -0.654200
v -1.000000 1.000000 -0.654200
v -2.900000 1.000000 -0.654200
v -2.800000 1.100000 -0.654200
v 0.800000 1.100000 -0.654200
v 0.800000 1.000000 -0.654200
v -2.900000 0.950000 -0.654200
v 0.800000 0.950000 -0.654200
v 0.620000 1.000000 -0.900000
v 0.620000 1.100000 0.900000
v 0.620000 1.000000 -0.800000
v 0.620000 1.000000 0.820000
v 0.620000 1.000000 0.900000
v 0.620000 1.100000 -0.900000
v 0.620000 1.100000 -0.800000
v 0.620000 1.100000 0.820000
v 0.620000 0.950000 -0.900000
v 0.620000 0.950000 -0.800000
v 0.620000 0.950000 0.820000
v 0.620000 0.950000 0.900000
v 0.620000 1.000000 0.658000
v 0.620000 1.100000 0.658000
v 0.620000 1.100000 -0.654200
v 0.620000 1.000000 -0.654200
v -2.620000 1.100000 -0.900000
v -2.620000 1.100000 0.900000
v -2.620000 1.000000 -0.900000
v -2.620000 1.000000 0.900000
v -2.620000 1.100000 -0.800000
v -2.620000 1.000000 -0.800000
v -2.620000 1.100000 0.820000
v -2.620000 1.000000 0.820000
v -2.620000 0.950000 -0.900000
v -2.620000 0.950000 0.900000
v -2.620000 0.950000 -0.800000
v -2.620000 0.950000 0.820000
v -2.620000 1.100000 0.658000
v -2.620000 1.000000 0.658000
v -2.620000 1.000000 -0.654200
v -2.620000 1.100000 -0.654200
v -2.620000 0.000000 -0.800000
v -2.800000 0.000000 -0.800000
v -2.620000 0.000000 0.820000
v -2.800000 0.000000 0.820000
v -2.800000 0.000000 -0.654200
v 0.800000 0.000000 0.658000
v 0.800000 0.000000 0.820000
v -2.800000 0.000000 0.658000
v -2.620000 0.000000 0.658000
v 0.800000 0.000000 -0.800000
v 0.800000 0.000000 -0.654200
v -2.620000 0.000000 -0.654200
v 0.620000 0.000000 -0.800000
v 0.620000 0.000000 0.820000
v 0.620000 0.000000 0.658000
v 0.620000 0.000000 -0.654200
vn -0.0000 1.0000 -0.0000
vn -0.0000 -0.0000 1.0000
vn 1.0000 -0.0000 -0.0000
vn -0.0000 -0.0000 -1.0000
vn -1.0000 -0.0000 -0.0000
vn -0.0000 -1.0000 -0.0000
vt 0.672500 0.727500
vt 0.875000 0.727500
vt 0.875000 0.750000
vt 0.672500 0.750000
vt 0.375000 0.797500
vt 0.625000 0.797500
vt 0.625000 1.000000
vt 0.375000 1.000000
vt 0.875000 0.525000
vt 0.875000 0.500000
vt 0.375000 0.707250
vt 0.375000 0.727500
vt 0.625000 0.727500
vt 0.625000 0.750000
vt 0.375000 0.750000
vt 0.375000 0.475000
vt 0.625000 0.475000
vt 0.625000 0.500000
vt 0.375000 0.500000
vt 0.625000 0.250000
vt 0.375000 0.250000
vt 0.125000 0.727500
vt 0.125000 0.750000
vt 0.375000 0.225000
vt 0.625000 0.225000
vt 0.125000 0.707250
vt 0.125000 0.727500
vt 0.125000 0.707250
vt 0.875000 0.543225
vt 0.375000 0.452500
vt 0.375000 0.452500
vt 0.375000 0.206775
vt 0.625000 0.206775
vt 0.125000 0.500000
vt 0.125000 0.525000
vt 0.625000 0.525000
vt 0.375000 0.525000
vt 0.672500 0.500000
vt 0.672500 0.525000
vt 0.875000 0.727500
vt 0.375000 0.000000
vt 0.625000 0.000000
vt 0.625000 0.022500
vt 0.375000 0.022500
vt 0.875000 0.727500
vt 0.375000 0.775000
vt 0.625000 0.707250
vt 0.672500 0.707250
vt 0.875000 0.707250
vt 0.327500 0.525000
vt 0.350000 0.525000
vt 0.327500 0.727500
vt 0.350000 0.727500
vt 0.650000 0.707250
vt 0.650000 0.727500
vt 0.650000 0.500000
vt 0.650000 0.525000
vt 0.625000 0.452500
vt 0.625000 0.775000
vt 0.650000 0.750000
vt 0.350000 0.750000
vt 0.350000 0.500000
vt 0.350000 0.707250
vt 0.327500 0.500000
vt 0.327500 0.525000
vt 0.327500 0.750000
vt 0.375000 0.206775
vt 0.350000 0.543225
vt 0.375000 0.042750
vt 0.375000 0.543225
vt 0.125000 0.543225
vt 0.327500 0.543225
vt 0.327500 0.707250
vt 0.625000 0.543225
vt 0.650000 0.543225
vt 0.875000 0.707250
vt 0.125000 0.543225
vt 0.672500 0.543225
vt 0.625000 0.042750
s 0
usemtl Material
f 112/1/1 29/2/1 7/3/1 106/4/1
f 109/5/2 106/6/2 7/7/2 8/8/2
f 19/9/1 5/10/1 12/10/1 22/9/1
f 74/11/3 30/12/3 65/12/3 85/11/3
f 30/12/3 26/13/3 3/14/3 4/15/3
f 41/16/4 44/17/4 1/18/4 2/19/4
f 34/20/4 33/21/4 13/21/4 16/20/4
f 5/20/1 6/21/1 9/21/1 12/20/1
f 8/8/1 7/7/1 11/7/1 10/8/1
f 25/22/1 8/23/1 10/23/1 27/22/1
f 23/24/5 24/25/5 16/20/5 13/21/5
f 81/26/3 40/27/3 71/27/3 87/28/3
f 37/9/1 34/10/1 16/10/1 24/9/1
f 35/8/2 36/7/2 15/7/2 14/8/2
f 100/29/1 37/9/1 24/9/1 92/29/1
f 105/30/4 41/16/4 51/16/4 113/31/4
f 99/32/5 92/33/5 24/25/5 23/24/5
f 6/34/1 17/35/1 21/35/1 9/34/1
f 2/19/3 1/18/3 18/36/3 20/37/3
f 123/21/4 9/21/4 66/21/4 129/21/4
f 89/29/1 19/9/1 22/9/1 91/29/1
f 110/38/1 5/10/1 19/9/1 111/39/1
f 7/3/1 29/2/1 31/40/1 11/3/1
f 14/41/5 15/42/5 32/43/5 28/44/5
f 36/3/1 39/45/1 32/2/1 15/3/1
f 4/15/2 43/46/2 53/46/2 54/15/2
f 77/28/1 25/22/1 27/22/1 79/28/1
f 74/11/3 78/47/3 26/13/3 30/12/3
f 128/27/4 27/22/4 57/22/4 132/27/4
f 118/48/1 73/49/1 29/2/1 112/1/1
f 107/50/4 45/51/4 146/51/4 149/50/4
f 122/3/1 127/45/1 39/45/1 36/3/1
f 8/23/5 25/22/5 49/22/5 50/23/5
f 136/29/1 125/9/1 37/9/1 100/29/1
f 124/8/2 122/7/2 36/7/2 35/8/2
f 125/9/1 121/10/1 34/10/1 37/9/1
f 108/52/4 47/53/4 72/53/4 115/52/4
f 121/20/4 123/21/4 33/21/4 34/20/4
f 78/47/1 83/54/1 48/55/1 26/13/1
f 134/26/3 128/27/3 139/27/3 145/26/3
f 1/18/1 44/56/1 46/57/1 18/36/1
f 17/35/5 6/34/5 52/34/5 64/35/5
f 105/30/4 110/58/4 44/17/4 41/16/4
f 126/35/2 38/35/2 69/35/2 131/35/2
f 4/15/2 3/14/2 42/59/2 43/46/2
f 26/13/1 48/55/1 42/60/1 3/14/1
f 72/53/6 65/12/6 54/15/6 53/61/6
f 71/27/6 63/23/6 60/23/6 59/22/6
f 61/34/6 69/35/6 68/35/6 62/34/6
f 51/62/6 56/19/6 55/37/6 70/51/6
f 87/28/6 71/27/6 59/22/6 86/28/6
f 88/63/6 85/11/6 65/12/6 72/53/6
f 129/34/6 131/35/6 69/35/6 61/34/6
f 132/27/6 130/23/6 63/23/6 71/27/6
f 113/64/6 51/62/6 70/51/6 114/65/6
f 115/52/6 72/53/6 53/61/6 116/66/6
f 13/21/4 33/21/4 61/21/4 62/21/4
f 41/16/4 2/19/4 56/19/4 51/16/4
f 9/34/3 21/35/3 67/35/3 66/34/3
f 99/32/5 23/24/5 68/24/5 103/67/5
f 124/8/2 35/8/2 63/8/2 130/8/2
f 102/68/5 45/51/5 70/51/5 104/68/5
f 2/19/3 20/37/3 55/37/3 56/19/3
f 35/8/2 14/8/2 60/8/2 63/8/2
f 109/5/2 8/8/2 50/8/2 116/5/2
f 107/50/2 17/35/2 64/35/2 114/65/2
f 23/24/5 13/21/5 62/21/5 68/24/5
f 30/12/3 4/15/3 54/15/3 65/12/3
f 27/22/3 10/23/3 58/23/3 57/22/3
f 14/41/5 28/44/5 59/44/5 60/41/5
f 47/53/5 84/63/5 88/63/5 72/53/5
f 28/44/5 80/69/5 86/69/5 59/44/5
f 104/68/6 94/70/6 85/11/6 88/63/6
f 95/71/6 87/28/6 86/28/6 103/71/6
f 120/72/6 102/68/6 84/63/6 117/73/6
f 97/74/1 101/75/1 83/54/1 78/47/1
f 127/45/1 133/76/1 82/76/1 39/45/1
f 135/77/6 134/26/6 81/26/6 93/77/6
f 119/78/1 89/29/1 73/49/1 118/48/1
f 90/70/3 97/74/3 78/47/3 74/11/3
f 96/71/1 77/28/1 79/28/1 98/71/1
f 29/2/1 73/49/1 75/76/1 31/2/1
f 28/44/5 32/43/5 76/79/5 80/69/5
f 39/45/1 82/76/1 76/49/1 32/2/1
f 93/77/3 81/26/3 87/28/3 95/71/3
f 90/70/3 74/11/3 85/11/3 94/70/3
f 20/37/3 90/70/3 94/70/3 55/37/3
f 38/35/3 93/77/3 95/71/3 69/35/3
f 17/35/1 96/71/1 98/71/1 21/35/1
f 20/37/3 18/36/3 97/74/3 90/70/3
f 111/39/1 19/9/1 89/29/1 119/78/1
f 38/35/4 126/35/4 137/35/4 138/35/4
f 18/36/1 46/57/1 101/75/1 97/74/1
f 120/72/5 107/50/5 149/50/5 152/72/5
f 69/35/6 95/71/6 103/71/6 68/35/6
f 70/51/6 55/37/6 94/70/6 104/68/6
f 84/63/5 102/68/5 104/68/5 88/63/5
f 80/69/5 99/32/5 103/67/5 86/69/5
f 133/76/1 136/29/1 100/29/1 82/76/1
f 73/49/1 89/29/1 91/29/1 75/49/1
f 80/69/5 76/79/5 92/33/5 99/32/5
f 82/76/1 100/29/1 92/29/1 76/49/1
f 17/35/6 107/50/6 120/72/6 96/71/6
f 46/57/1 111/39/1 119/78/1 101/75/1
f 101/75/1 119/78/1 118/48/1 83/54/1
f 96/71/6 120/72/6 117/73/6 77/28/6
f 45/51/2 107/50/2 114/65/2 70/51/2
f 43/46/2 109/5/2 116/5/2 53/46/2
f 49/22/6 115/52/6 116/66/6 50/23/6
f 52/34/6 113/64/6 114/65/6 64/35/6
f 6/21/4 5/20/4 110/58/4 105/30/4
f 77/28/6 117/73/6 108/52/6 25/22/6
f 25/22/4 108/52/4 115/52/4 49/22/4
f 83/54/1 118/48/1 112/1/1 48/55/1
f 44/56/1 110/38/1 111/39/1 46/57/1
f 6/21/4 105/30/4 113/31/4 52/21/4
f 43/46/2 42/59/2 106/6/2 109/5/2
f 48/55/1 112/1/1 106/4/1 42/60/1
f 75/76/1 91/29/1 136/29/1 133/76/1
f 21/35/6 98/71/6 135/77/6 126/35/6
f 98/71/6 79/28/6 134/26/6 135/77/6
f 31/40/1 75/76/1 133/76/1 127/45/1
f 10/8/2 124/8/2 130/8/2 58/8/2
f 57/22/6 58/23/6 130/23/6 132/27/6
f 66/34/6 67/35/6 131/35/6 129/34/6
f 21/35/2 126/35/2 131/35/2 67/35/2
f 12/20/4 9/21/4 123/21/4 121/20/4
f 22/9/1 12/10/1 121/10/1 125/9/1
f 10/8/2 11/7/2 122/7/2 124/8/2
f 91/29/1 22/9/1 125/9/1 136/29/1
f 11/3/1 31/40/1 127/45/1 122/3/1
f 79/28/6 27/22/6 128/27/6 134/26/6
f 40/27/4 128/27/4 132/27/4 71/27/4
f 33/21/4 123/21/4 129/21/4 61/21/4
f 145/26/6 139/27/6 140/27/6 144/26/6
f 151/73/6 142/63/6 143/53/6 150/52/6
f 137/35/6 148/77/6 141/77/6 138/35/6
f 149/50/6 146/51/6 147/68/6 152/72/6
f 108/52/5 117/73/5 151/73/5 150/52/5
f 47/53/2 108/52/2 150/52/2 143/53/2
f 40/27/5 81/26/5 144/26/5 140/27/5
f 45/51/3 102/68/3 147/68/3 146/51/3
f 81/26/4 134/26/4 145/26/4 144/26/4
f 128/27/2 40/27/2 140/27/2 139/27/2
f 135/77/2 93/77/2 141/77/2 148/77/2
f 126/35/3 135/77/3 148/77/3 137/35/3
f 117/73/4 84/63/4 142/63/4 151/73/4
f 93/77/5 38/35/5 138/35/5 141/77/5
f 84/63/3 47/53/3 143/53/3 142/63/3
f 102/68/2 120/72/2 152/72/2 147/68/2
